<svg
  class="icon-sun"
  aria-hidden="true"
  focusable="false"
  role="img"
  xmlns="http://www.w3.org/2000/svg"
  viewBox="0 0 24 24"
  width="24"
  height="24"
  fill="currentColor"
>
  <circle cx="12" cy="12" r="6.5"/>
  <rect ry="1" x="11" y="20.3" height="3.7" width="2" />
  <rect ry="1" x="11" y="20.3" height="3.7" width="2" transform="rotate(180 12 12)" />
  <rect ry="1" x="11" y="20.3" height="3.7" width="2" transform="rotate(135 12 12)" />
  <rect ry="1" x="11" y="20.3" height="3.7" width="2" transform="rotate(-135 12 12)" />
  <rect ry="1" x="11" y="20.3" height="3.7" width="2" transform="rotate(45 12 12)" />
  <rect ry="1" x="11" y="20.3" height="3.7" width="2" transform="rotate(-45 12 12)" />
  <rect ry="1" x="11" y="20.3" height="3.7" width="2" transform="rotate(-90 12 12)" />
  <rect ry="1" x="11" y="20.3" height="3.7" width="2" transform="rotate(90 12 12)" />
</svg>
